Ostrich_Running_GRF_Data																		
inDegrees=yes
nColumns=19
nRows=116
DataType=double
version=3
OpenSimVersion=4.4.1-2023-07-13-710e13be5
endheader
time	ground_force_vx	ground_force_vy	ground_force_vz	ground_force_px	ground_force_py	ground_force_pz	1_ground_force_vx	1_ground_force_vy	1_ground_force_vz	1_ground_force_px	1_ground_force_py	1_ground_force_pz	ground_torque_x	ground_torque_y	ground_torque_z	1_ground_torque_x	1_ground_torque_y	1_ground_torque_z
-0.035	0	0	0	0	0	0	49.8101	1705.4306	-98.7989	0.1648727976535187	0	-0.9918141360620727	0	0	0	0	-3.848703161	0
-0.03	0	0	0	0	0	0	49.8101	1705.4306	-98.7989	0.1687756131841271	0	-0.9838056205301351	0	0	0	0	-3.848703161	0
-0.025	0	0	0	0	0	0	49.8101	1705.4306	-98.7989	0.1726766598964124	0	-0.975829900597441	0	0	0	0	-3.848703161	0
-0.02	0	0	0	0	0	0	49.8101	1705.4306	-98.7989	0.1804792673224508	0	-0.9599961166719643	0	0	0	0	-3.848703161	0
-0.015	0	0	0	0	0	0	49.8101	1705.4306	-98.7989	0.1843837190497529	0	-0.9521475951317301	0	0	0	0	-3.848703161	0
-0.01	0	0	0	0	0	0	49.8101	1705.4306	-98.7989	0.18829228003536	0	-0.9443508701340654	0	0	0	0	-3.848703161	0
-0.005	0	0	0	0	0	0	49.8101	1705.4306	-98.7989	0.1961427432389098	0	-0.9289758113152283	0	0	0	0	-3.848703161	0
0	0	0	0	0	0	0	49.8101	1705.4306	-98.7989	0.2000779963050244	0	-0.9213916759341622	0	0	0	0	-3.848703161	0
0.005	0	0	0	0	0	0	68.8569	1643.8766	-100.6879	0.2058081995560982	0	-0.9129505556088732	0	0	0	0	-4.169473842	0
0.01	0	0	0	0	0	0	86.4421	1575.4193	-101.0434	0.2117140282479606	0	-0.9047038205355309	0	0	0	0	-4.20119579	0
0.015	0	0	0	0	0	0	102.2156	1500.0558	-99.8216	0.2179184802926693	0	-0.896678359155869	0	0	0	0	-3.965595939	0
0.02	0	0	0	0	0	0	115.7359	1418.0423	-97.0972	0.2286253934311965	0	-0.8817429842539944	0	0	0	0	-3.51710863	0
0.025	0	0	0	0	0	0	126.5788	1330.0884	-92.9461	0.2356199188597626	0	-0.8744802596779239	0	0	0	0	-2.931223288	0
0.03	0	0	0	0	0	0	134.3811	1237.4209	-87.5183	0.2430584009864115	0	-0.8676531856654921	0	0	0	0	-2.284264754	0
0.035	0	0	0	0	0	0	138.8181	1141.6564	-81.09990000000001	0.2553019895574535	0	-0.8550163303472835	0	0	0	0	-1.646073713	0
0.04	0	0	0	0	0	0	139.6487	1044.5977	-74.11279999999999	0.2636882210587571	0	-0.8490987893808687	0	0	0	0	-1.083897788	0
0.045	0	0	0	0	0	0	136.8161	948.0664	-67.03230000000001	0.2725536240332455	0	-0.8434403232509152	0	0	0	0	-0.665754109	0
0.05	0	0	0	0	0	0	130.4343	853.848	-60.1479	0.2821291688704272	0	-0.8381071885620345	0	0	0	0	-0.430847999	0
0.055	0	0	0	0	0	0	120.8259	763.6199	-53.4712	0.296566621314305	0	-0.8273353341739815	0	0	0	0	-0.368611092	0
0.06	0	0	0	0	0	0	108.6716	678.6695	-46.9652	0.3070350280763289	0	-0.8221998532324198	0	0	0	0	-0.435487791	0
0.065	0	0	0	0	0	0	95.3327	599.3819999999999	-40.8054	0.3175365365269822	0	-0.8170037974022529	0	0	0	0	-0.577858556	0
0.07000000000000001	0	0	0	0	0	0	82.8673	524.9683	-35.3339	0.3279287616317667	0	-0.811809153831054	0	0	0	0	-0.741740678	0
0.075	0	0	0	0	0	0	73.1306	454.2069	-30.773	0.3422554713722757	0	-0.8010226948901211	0	0	0	0	-0.884925893	0
0.08	0	0	0	0	0	0	66.6896	386.6565	-27.0451	0.3518469985953754	0	-0.7958009811930451	0	0	0	0	-0.983335556	0
0.08500000000000001	0	0	0	0	0	0	62.6631	323.0688	-23.8684	0.3610469629626649	0	-0.7906283530481196	0	0	0	0	-1.025559462	0
0.09	0	0	0	0	0	0	59.4564	264.7533	-20.9882	0.3700700745579439	0	-0.7857267717959432	0	0	0	0	-1.011426845	0
0.095	0	0	0	0	0	0	55.678	212.7885	-18.2443	0.3842133994489385	0	-0.7771174941163328	0	0	0	0	-0.950294071	0
0.1	0	0	0	0	0	0	50.6252	167.7058	-15.5074	0.3931975261030594	0	-0.7730061992758608	0	0	0	0	-0.856336836	0
0.105	0	0	0	0	0	0	44.2312	129.6744	-12.6382	0.4023691150699835	0	-0.7690916603345603	0	0	0	0	-0.746386679	0
0.11	0	0	0	0	0	0	36.8504	98.7107	-9.597	0.412063636939226	0	-0.7655845303342065	0	0	0	0	-0.64293662	0
0.115	0	0	0	0	0	0	29.2129	74.6096	-6.6144	0.429493823429978	0	-0.7615606929846518	0	0	0	0	-0.566002344	0
0.12	0	0	0	0	0	0	22.1638	56.7851	-4.084	0.4406178410329606	0	-0.7592576646460727	0	0	0	0	-0.533432314	0
0.125	0	0	0	0	0	0	16.2574	44.2984	-2.2663	0.4513849629997039	0	-0.7567723273672717	0	0	0	0	-0.559241346	0
0.13	0	0	0	0	0	0	11.7042	36.0131	-1.1792	0.4606203260448103	0	-0.75263658887664	0	0	0	0	-0.6437917990000001	0
0.135	0	0	0	0	0	0	0	0	0	0	0	0	0	0	0	0	0	0
0.14	0	0	0	0	0	0	0	0	0	0	0	0	0	0	0	0	0	0
0.145	0	0	0	0	0	0	0	0	0	0	0	0	0	0	0	0	0	0
0.15	0	0	0	0	0	0	0	0	0	0	0	0	0	0	0	0	0	0
0.155	0	0	0	0	0	0	0	0	0	0	0	0	0	0	0	0	0	0
0.16	0	0	0	0	0	0	0	0	0	0	0	0	0	0	0	0	0	0
0.165	0	0	0	0	0	0	0	0	0	0	0	0	0	0	0	0	0	0
0.17	0	0	0	0	0	0	0	0	0	0	0	0	0	0	0	0	0	0
0.175	0	0	0	0	0	0	0	0	0	0	0	0	0	0	0	0	0	0
0.18	0	0	0	0	0	0	0	0	0	0	0	0	0	0	0	0	0	0
0.185	0	0	0	0	0	0	0	0	0	0	0	0	0	0	0	0	0	0
0.19	0	0	0	0	0	0	0	0	0	0	0	0	0	0	0	0	0	0
0.195	0	0	0	0	0	0	0	0	0	0	0	0	0	0	0	0	0	0
0.2	0	0	0	0	0	0	0	0	0	0	0	0	0	0	0	0	0	0
0.205	0	0	0	0	0	0	0	0	0	0	0	0	0	0	0	0	0	0
0.21	6.7666	20.8223	-0.6085	1.39268420428281	0	-0.7720993266537949	0	0	0	0	0	0	0	0.69257873	0	0	0	0
0.215	5.5678	22.9504	-0.2132	1.398050121396254	0	-0.7803047539829578	0	0	0	0	0	0	0	0.9085292190000001	0	0	0	0
0.22	2.3203	31.2084	0.8693	1.397300999781337	0	-0.7808854389156923	0	0	0	0	0	0	0	1.243927513	0	0	0	0
0.225	-3.9111	49.2914	2.9482	1.468793309606538	0	-0.8684135120908597	0	0	0	0	0	0	0	1.492911912	0	0	0	0
0.23	-13.5793	80.22280000000001	6.1771	1.426952462789914	0	-0.8557795697959601	0	0	0	0	0	0	0	1.5666821	0	0	0	0
0.235	-26.1952	125.7022	9.937200000000001	1.406314426923485	0	-0.851060237164168	0	0	0	0	0	0	0	1.418022058	0	0	0	0
0.24	-41.204	187.7183	12.2861	1.398305444371124	0	-0.855550512041552	0	0	0	0	0	0	0	0.995837566	0	0	0	0
0.245	-57.8938	268.8135	12.3513	1.38951842136967	0	-0.8567015263820605	0	0	0	0	0	0	0	0.377304616	0	0	0	0
0.25	-75.6336	370.0015	11.4074	1.383545823257727	0	-0.8586863668638116	0	0	0	0	0	0	0	-0.263135593	0	0	0	0
0.255	-94.2435	487.1435	12.1564	1.383918874672505	0	-0.8642649483835909	0	0	0	0	0	0	0	-0.750503351	0	0	0	0
0.26	-112.7054	611.5497	16.8122	1.382181797448564	0	-0.8660479919674609	0	0	0	0	0	0	0	-1.027204183	0	0	0	0
0.265	-129.4186	735.8012	25.6863	1.381772665068326	0	-0.8677830708839105	0	0	0	0	0	0	0	-1.155400506	0	0	0	0
0.27	-143.6184	854.975	36.6431	1.382238902280648	0	-0.8692807705444883	0	0	0	0	0	0	0	-1.21226202	0	0	0	0
0.275	-154.2999	966.5107	46.5403	1.386249008396006	0	-0.8723949977598667	0	0	0	0	0	0	0	-1.2616582	0	0	0	0
0.28	-160.7292	1070.2231	53.666	1.38736756684298	0	-0.8734438452818188	0	0	0	0	0	0	0	-1.343585488	0	0	0	0
0.285	-163.6136	1167.8019	58.2437	1.388686664115183	0	-0.8744698430795977	0	0	0	0	0	0	0	-1.455820003	0	0	0	0
0.29	-164.5264	1261.9939	61.5306	1.390047235327052	0	-0.875470951047482	0	0	0	0	0	0	0	-1.608253319	0	0	0	0
0.295	-164.6704	1355.4439	64.4329	1.393822137669255	0	-0.8773534879529722	0	0	0	0	0	0	0	-1.840306997	0	0	0	0
0.3	-164.3774	1449.5846	66.94110000000001	1.395168907553304	0	-0.8783260653023068	0	0	0	0	0	0	0	-2.18335941	0	0	0	0
0.305	-163.0387	1543.7716	68.6735	1.396555520644852	0	-0.8792821880218469	0	0	0	0	0	0	0	-2.612396756	0	0	0	0
0.31	-159.5275	1635.1547	69.5714	1.39803768082454	0	-0.8801887499467148	0	0	0	0	0	0	0	-3.04893709	0	0	0	0
0.315	-152.761	1719.2508	70.0149	1.40174909716731	0	-0.8814652527129676	0	0	0	0	0	0	0	-3.388094375	0	0	0	0
0.32	-141.9961	1790.9496	70.52549999999999	1.403692226068622	0	-0.882267010209847	0	0	0	0	0	0	0	-3.529259119	0	0	0	0
0.325	-127.0291	1845.8391	71.53489999999999	1.406014199466116	0	-0.8830606385985889	0	0	0	0	0	0	0	-3.394132962	0	0	0	0
0.33	-108.2684	1881.3058	73.3207	1.408685149512053	0	-0.8838385051316054	0	0	0	0	0	0	0	-2.933082347	0	0	0	0
0.335	-86.6104	1896.9983	75.9879	1.413825544455829	0	-0.8847284894247551	0	0	0	0	0	0	0	-2.153884247	0	0	0	0
0.34	-63.1583	1894.5843	79.44029999999999	1.417272492405586	0	-0.8854557544853977	0	0	0	0	0	0	0	-1.118310626	0	0	0	0
0.345	-38.9981	1876.9423	83.4196	1.421001363939817	0	-0.886182951460904	0	0	0	0	0	0	0	0.064015187	0	0	0	0
0.35	-15.1064	1847.1226	87.62949999999999	1.424993229492098	0	-0.8868332446414549	0	0	0	0	0	0	0	1.263684351	0	0	0	0
0.355	7.8129	1807.6175	91.8117	1.431403093685025	0	-0.8873843025780295	0	0	0	0	0	0	0	2.354389882	0	0	0	0
0.36	29.4612	1760.0998	95.67789999999999	1.435722278055424	0	-0.8879007693203874	0	0	0	0	0	0	0	3.236280282	0	0	0	0
0.365	49.8101	1705.4306	98.7989	1.440155384492645	0	-0.8883052265745477	0	0	0	0	0	0	0	3.848703161	0	0	0	0
0.37	68.8569	1643.8766	100.6879	1.444704390892557	0	-0.8886217140459096	0	0	0	0	0	0	0	4.169473842	0	0	0	0
0.375	86.4421	1575.4193	101.0434	1.452100078979132	0	-0.8886023559538497	0	0	0	0	0	0	0	4.20119579	0	0	0	0
0.38	102.2156	1500.0558	99.8216	1.457046623783483	0	-0.888646115136807	0	0	0	0	0	0	0	3.965595939	0	0	0	0
0.385	115.7359	1418.0423	97.0972	1.462169340352074	0	-0.8885738342925008	0	0	0	0	0	0	0	3.51710863	0	0	0	0
0.39	126.5788	1330.0884	92.9461	1.467758985143703	0	-0.8883276741947366	0	0	0	0	0	0	0	2.931223288	0	0	0	0
0.395	134.3811	1237.4209	87.5183	1.476701338081953	0	-0.8879305947719955	0	0	0	0	0	0	0	2.284264754	0	0	0	0
0.4	138.8181	1141.6564	81.09990000000001	1.483045965007073	0	-0.8874739140919821	0	0	0	0	0	0	0	1.646073713	0	0	0	0
0.405	139.6487	1044.5977	74.11279999999999	1.489955767116589	0	-0.8868589734890769	0	0	0	0	0	0	0	1.083897788	0	0	0	0
0.41	136.8161	948.0664	67.03230000000001	1.497348778541111	0	-0.8861973968399963	0	0	0	0	0	0	0	0.665754109	0	0	0	0
0.415	130.4343	853.848	60.1479	1.508333073064501	0	-0.8860803957521869	0	0	0	0	0	0	0	0.430847999	0	0	0	0
0.42	120.8259	763.6199	53.4712	1.516839256237788	0	-0.8854353526666032	0	0	0	0	0	0	0	0.368611092	0	0	0	0
0.425	108.6716	678.6695	46.9652	1.525760493464162	0	-0.8847765760083556	0	0	0	0	0	0	0	0.435487791	0	0	0	0
0.43	95.3327	599.3819999999999	40.8054	1.534713355216279	0	-0.8843401889335915	0	0	0	0	0	0	0	0.577858556	0	0	0	0
0.435	82.8673	524.9683	35.3339	1.546184525282974	0	-0.8856377188197467	0	0	0	0	0	0	0	0.741740678	0	0	0	0
0.44	73.1306	454.2069	30.773	1.554461145356156	0	-0.8859114601646346	0	0	0	0	0	0	0	0.884925893	0	0	0	0
0.445	66.6896	386.6565	27.0451	1.56231162264789	0	-0.8865400549205339	0	0	0	0	0	0	0	0.983335556	0	0	0	0
0.45	62.6631	323.0688	23.8684	1.569784653376835	0	-0.8874760120610744	0	0	0	0	0	0	0	1.025559462	0	0	0	0
0.455	59.4564	264.7533	20.9882	1.580030459763008	0	-0.8904406177112133	0	0	0	0	0	0	0	1.011426845	0	0	0	0
0.46	55.678	212.7885	18.2443	1.587083601820211	0	-0.891886385803717	0	0	0	0	0	0	0	0.950294071	0	0	0	0
0.465	50.6252	167.7058	15.5074	1.594070686622281	0	-0.8936012570912574	0	0	0	0	0	0	0	0.856336836	0	0	0	0
0.47	44.2312	129.6744	12.6382	1.601379031110325	0	-0.8954874371965681	0	0	0	0	0	0	0	0.746386679	0	0	0	0
0.475	36.8504	98.7107	9.597	1.613503019811095	0	-0.8988766728774782	0	0	0	0	0	0	0	0.64293662	0	0	0	0
0.48	29.2129	74.6096	6.6144	1.622247942024801	0	-0.9009852119740627	0	0	0	0	0	0	0	0.566002344	0	0	0	0
0.485	22.1638	56.7851	4.084	1.631379998040122	0	-0.903429664927623	0	0	0	0	0	0	0	0.533432314	0	0	0	0
0.49	16.2574	44.2984	2.2663	1.640469292112622	0	-0.9067102429212177	0	0	0	0	0	0	0	0.559241346	0	0	0	0
0.495	11.7042	36.0131	1.1792	1.654924972687756	0	-0.9134810707906508	0	0	0	0	0	0	0	0.6437917990000001	0	0	0	0
0.5	0	0	0	0	0	0	0	0	0	0	0	0	0	0	0	0	0	0
0.505	0	0	0	0	0	0	0	0	0	0	0	0	0	0	0	0	0	0
0.51	0	0	0	0	0	0	0	0	0	0	0	0	0	0	0	0	0	0
0.515	0	0	0	0	0	0	0	0	0	0	0	0	0	0	0	0	0	0
0.52	0	0	0	0	0	0	0	0	0	0	0	0	0	0	0	0	0	0
0.525	0	0	0	0	0	0	0	0	0	0	0	0	0	0	0	0	0	0
0.53	0	0	0	0	0	0	0	0	0	0	0	0	0	0	0	0	0	0
0.535	0	0	0	0	0	0	0	0	0	0	0	0	0	0	0	0	0	0
0.54	0	0	0	0	0	0	0	0	0	0	0	0	0	0	0	0	0	0
